<svg width="132" height="142" viewBox="0 0 132 142" fill="none" xmlns="http://www.w3.org/2000/svg">
<path d="M98.3722 8.15478V125.996C98.3722 127.549 97.7551 129.039 96.6566 130.137C95.5582 131.236 94.0683 131.853 92.5148 131.853H41.5952C40.0417 131.853 38.5519 131.236 37.4534 130.137C36.3549 129.039 35.7378 127.549 35.7378 125.996V8.15135C35.7378 6.59878 36.3545 5.1098 37.4524 4.01197C38.5502 2.91413 40.0392 2.29738 41.5918 2.29738H63.4473L63.4679 2.36253C64.0166 4.32415 65.2649 5.59645 66.6572 5.59645H67.446C68.8383 5.59645 70.09 4.32072 70.6353 2.3591L70.6593 2.29395H92.5148C93.2843 2.29395 94.0463 2.44557 94.7571 2.74014C95.468 3.03472 96.1139 3.46648 96.6578 4.01075C97.2018 4.55503 97.6332 5.20115 97.9273 5.9122C98.2215 6.62324 98.3727 7.38529 98.3722 8.15478Z" fill="white"/>
<path d="M92.5145 132.025H41.5948C40.8022 132.026 40.0172 131.871 39.2845 131.568C38.5519 131.266 37.886 130.822 37.3249 130.262C36.7638 129.702 36.3185 129.037 36.0143 128.305C35.7102 127.574 35.5531 126.789 35.5522 125.996V8.15191C35.5541 6.55442 36.1895 5.02288 37.3191 3.89328C38.4487 2.76368 39.9802 2.12828 41.5777 2.12646H63.5635L63.6184 2.31851C64.1431 4.20811 65.3331 5.42897 66.6431 5.42897H67.4456C68.7591 5.42897 69.9457 4.20811 70.4704 2.31851L70.5321 2.12646H92.5145C94.1129 2.12828 95.6453 2.76405 96.7756 3.89429C97.9058 5.02453 98.5416 6.55694 98.5434 8.15534V125.996C98.5416 127.595 97.9058 129.127 96.7756 130.257C95.6453 131.387 94.1129 132.023 92.5145 132.025ZM41.5914 2.4694C40.8443 2.4685 40.1043 2.61477 39.4137 2.89986C38.723 3.18494 38.0954 3.60326 37.5664 4.13093C37.0375 4.6586 36.6176 5.28528 36.3309 5.97521C36.0441 6.66513 35.8961 7.40477 35.8952 8.15191V125.996C35.897 127.504 36.4966 128.949 37.5626 130.015C38.6285 131.081 40.0737 131.68 41.5811 131.682H92.5145C94.0219 131.68 95.4671 131.081 96.5331 130.015C97.599 128.949 98.1986 127.504 98.2004 125.996V8.15534C98.1986 6.64789 97.599 5.20271 96.5331 4.13678C95.4671 3.07085 94.0219 2.47122 92.5145 2.4694H70.7927C70.2166 4.4756 68.91 5.77191 67.4525 5.77191H66.6569C65.1994 5.77191 63.8928 4.4756 63.3166 2.4694H41.5914Z" fill="#263238"/>
<path d="M76.671 79.2778H58.5055C57.5888 79.2778 56.8457 80.021 56.8457 80.9377V84.3122C56.8457 85.2289 57.5888 85.972 58.5055 85.972H76.671C77.5877 85.972 78.3309 85.2289 78.3309 84.3122V80.9377C78.3309 80.021 77.5877 79.2778 76.671 79.2778Z" fill="#263238"/>
<path d="M76.6672 86.1436H58.4915C58.006 86.1426 57.5408 85.9494 57.1975 85.6062C56.8543 85.2629 56.6611 84.7977 56.6602 84.3123V80.9377C56.6602 80.452 56.8531 79.9863 57.1965 79.6428C57.54 79.2994 58.0058 79.1064 58.4915 79.1064H76.6672C77.1532 79.1064 77.6194 79.2993 77.9634 79.6426C78.3074 79.9859 78.5011 80.4517 78.502 80.9377V84.3123C78.5011 84.7983 78.3074 85.2641 77.9634 85.6074C77.6194 85.9507 77.1532 86.1436 76.6672 86.1436ZM58.4915 79.4494C58.0967 79.4494 57.7181 79.6062 57.439 79.8853C57.1599 80.1644 57.0031 80.543 57.0031 80.9377V84.3123C57.004 84.7067 57.1611 85.0848 57.44 85.3637C57.719 85.6426 58.097 85.7997 58.4915 85.8006H76.6672C77.0623 85.8006 77.4412 85.6439 77.7209 85.3649C78.0005 85.0859 78.1581 84.7073 78.159 84.3123V80.9377C78.159 80.742 78.1204 80.5482 78.0454 80.3674C77.9704 80.1866 77.8605 80.0223 77.7219 79.8841C77.5833 79.7458 77.4188 79.6363 77.2379 79.5617C77.0569 79.4871 76.863 79.4489 76.6672 79.4494H58.4915Z" fill="#263238"/>
<path d="M35.7378 95.1934V125.996C35.7378 127.55 36.3549 129.04 37.4534 130.138C38.5519 131.236 40.0417 131.854 41.5952 131.854H92.5148C94.0683 131.854 95.5582 131.236 96.6566 130.138C97.7551 129.04 98.3722 127.55 98.3722 125.996V95.1934H35.7378Z" fill="#DBDBDB"/>
<path d="M92.5145 132.025H41.5948C40.8022 132.026 40.0172 131.871 39.2845 131.568C38.5519 131.266 37.886 130.822 37.3249 130.262C36.7638 129.702 36.3185 129.037 36.0143 128.306C35.7102 127.574 35.5531 126.789 35.5522 125.996V95.1934C35.5522 95.148 35.5703 95.1043 35.6025 95.0722C35.6346 95.04 35.6782 95.022 35.7237 95.022H98.3719C98.4174 95.022 98.461 95.04 98.4932 95.0722C98.5253 95.1043 98.5434 95.148 98.5434 95.1934V125.996C98.5416 127.595 97.9058 129.127 96.7756 130.257C95.6453 131.388 94.1129 132.023 92.5145 132.025ZM35.8952 95.3649V125.996C35.897 127.504 36.4966 128.949 37.5626 130.015C38.6285 131.081 40.0737 131.68 41.5811 131.682H92.5145C94.0219 131.68 95.4671 131.081 96.5331 130.015C97.599 128.949 98.1986 127.504 98.2004 125.996V95.3649H35.8952Z" fill="#263238"/>
<path d="M54.8119 98.9102H39.1979C38.768 98.9102 38.4194 99.2587 38.4194 99.6886V103.9C38.4194 104.33 38.768 104.678 39.1979 104.678H54.8119C55.2419 104.678 55.5904 104.33 55.5904 103.9V99.6886C55.5904 99.2587 55.2419 98.9102 54.8119 98.9102Z" fill="white"/>
<path d="M74.0307 98.9102H58.4167C57.9867 98.9102 57.6382 99.2587 57.6382 99.6886V103.9C57.6382 104.33 57.9867 104.678 58.4167 104.678H74.0307C74.4606 104.678 74.8092 104.33 74.8092 103.9V99.6886C74.8092 99.2587 74.4606 98.9102 74.0307 98.9102Z" fill="white"/>
<path d="M93.2455 98.9102H77.6315C77.2016 98.9102 76.853 99.2587 76.853 99.6886V103.9C76.853 104.33 77.2016 104.678 77.6315 104.678H93.2455C93.6755 104.678 94.024 104.33 94.024 103.9V99.6886C94.024 99.2587 93.6755 98.9102 93.2455 98.9102Z" fill="white"/>
<path d="M54.8119 106.284H39.1979C38.768 106.284 38.4194 106.632 38.4194 107.062V111.273C38.4194 111.703 38.768 112.052 39.1979 112.052H54.8119C55.2419 112.052 55.5904 111.703 55.5904 111.273V107.062C55.5904 106.632 55.2419 106.284 54.8119 106.284Z" fill="white"/>
<path d="M74.0307 106.284H58.4167C57.9867 106.284 57.6382 106.632 57.6382 107.062V111.273C57.6382 111.703 57.9867 112.052 58.4167 112.052H74.0307C74.4606 112.052 74.8092 111.703 74.8092 111.273V107.062C74.8092 106.632 74.4606 106.284 74.0307 106.284Z" fill="white"/>
<path d="M93.2455 106.284H77.6315C77.2016 106.284 76.853 106.632 76.853 107.062V111.273C76.853 111.703 77.2016 112.052 77.6315 112.052H93.2455C93.6755 112.052 94.024 111.703 94.024 111.273V107.062C94.024 106.632 93.6755 106.284 93.2455 106.284Z" fill="white"/>
<path d="M54.8119 113.653H39.1979C38.768 113.653 38.4194 114.002 38.4194 114.432V118.643C38.4194 119.073 38.768 119.422 39.1979 119.422H54.8119C55.2419 119.422 55.5904 119.073 55.5904 118.643V114.432C55.5904 114.002 55.2419 113.653 54.8119 113.653Z" fill="white"/>
<path d="M74.0307 113.653H58.4167C57.9867 113.653 57.6382 114.002 57.6382 114.432V118.643C57.6382 119.073 57.9867 119.422 58.4167 119.422H74.0307C74.4606 119.422 74.8092 119.073 74.8092 118.643V114.432C74.8092 114.002 74.4606 113.653 74.0307 113.653Z" fill="white"/>
<path d="M93.2455 113.653H77.6315C77.2016 113.653 76.853 114.002 76.853 114.432V118.643C76.853 119.073 77.2016 119.422 77.6315 119.422H93.2455C93.6755 119.422 94.024 119.073 94.024 118.643V114.432C94.024 114.002 93.6755 113.653 93.2455 113.653Z" fill="white"/>
<path d="M74.0307 121.027H58.4167C57.9867 121.027 57.6382 121.375 57.6382 121.805V126.017C57.6382 126.447 57.9867 126.795 58.4167 126.795H74.0307C74.4606 126.795 74.8092 126.447 74.8092 126.017V121.805C74.8092 121.375 74.4606 121.027 74.0307 121.027Z" fill="white"/>
<path d="M91.9526 126.795H81.2391L78.9277 124.11L81.2391 121.027H91.9526V126.795Z" fill="white"/>
<path d="M67.7409 28.9853L67.5865 28.8687L67.4322 28.9853C67.4322 28.9853 59.5446 33.4743 55.978 35.1787C55.978 35.1787 57.6927 44.781 58.917 49.1089C60.1413 53.4368 64.9562 55.7654 67.5865 57.3121C70.2203 55.7654 75.018 53.4437 76.256 49.1089C77.4941 44.7742 79.1985 35.1787 79.1985 35.1787C75.6353 33.4743 67.7409 28.9853 67.7409 28.9853Z" fill="#04A65A"/>
<path d="M66.7765 47.5418L61.5432 43.0562C61.4234 42.9537 61.325 42.8287 61.2535 42.6882C61.182 42.5477 61.1389 42.3945 61.1267 42.2373C61.1019 41.9199 61.2043 41.6057 61.4112 41.3638C61.6181 41.1218 61.9127 40.972 62.23 40.9473C62.5474 40.9225 62.8616 41.0248 63.1036 41.2318L66.533 44.1742L72.411 37.4903C72.6211 37.2511 72.9176 37.1051 73.2353 37.0845C73.553 37.064 73.8659 37.1704 74.1051 37.3805C74.3443 37.5906 74.4902 37.8872 74.5108 38.2049C74.5314 38.5226 74.4249 38.8355 74.2148 39.0747L66.7765 47.5418Z" fill="white"/>
<path d="M47.1512 62.6724H40.0317V69.7918H47.1512V62.6724Z" fill="white"/>
<path d="M47.3261 69.9629H39.8604V62.5005H47.3261V69.9629ZM40.2033 69.6199H46.9832V62.8434H40.2033V69.6199Z" fill="#263238"/>
<path d="M56.7498 62.6724H49.6304V69.7918H56.7498V62.6724Z" fill="white"/>
<path d="M56.9213 69.9629H49.459V62.5005H56.9213V69.9629ZM49.8019 69.6199H56.5784V62.8434H49.8019V69.6199Z" fill="#263238"/>
<path d="M66.3489 62.6724H59.2295V69.7918H66.3489V62.6724Z" fill="white"/>
<path d="M66.5205 69.9629H59.0581V62.5005H66.5205V69.9629ZM59.401 69.6199H66.1775V62.8434H59.401V69.6199Z" fill="#263238"/>
<path d="M75.9441 62.6724H68.8247V69.7918H75.9441V62.6724Z" fill="white"/>
<path d="M76.1191 69.9629H68.6533V62.5005H76.1191V69.9629ZM68.9963 69.6199H75.7762V62.8434H68.9963V69.6199Z" fill="#263238"/>
<path d="M85.5428 62.6724H78.4233V69.7918H85.5428V62.6724Z" fill="white"/>
<path d="M85.7143 69.9629H78.252V62.5005H85.7143V69.9629ZM78.5949 69.6199H85.3714V62.8434H78.5949V69.6199Z" fill="#263238"/>
<path d="M95.1419 62.6724H88.0225V69.7918H95.1419V62.6724Z" fill="white"/>
<path d="M95.3134 69.9629H87.8511V62.5005H95.3134V69.9629ZM88.194 69.6199H94.9705V62.8434H88.194V69.6199Z" fill="#263238"/>
<path d="M98.3722 13.635V8.14792C98.3704 6.59563 97.7525 5.10754 96.6542 4.01054C95.5559 2.91355 94.0671 2.29737 92.5148 2.29738H70.6627L70.6422 2.36253C70.0969 4.32415 68.8451 5.59645 67.446 5.59645H66.6572C65.2649 5.59645 64.0097 4.32072 63.4679 2.3591L63.4473 2.29395H41.5918C40.0392 2.29395 38.5502 2.9107 37.4524 4.00854C36.3545 5.10637 35.7378 6.59535 35.7378 8.14792V13.635H98.3722Z" fill="#DBDBDB"/>
<path d="M98.3684 13.8065H35.7374C35.6919 13.8065 35.6483 13.7884 35.6161 13.7563C35.584 13.7241 35.5659 13.6805 35.5659 13.635V8.14801C35.5677 6.55052 36.2031 5.01898 37.3327 3.88938C38.4623 2.75979 39.9939 2.12438 41.5914 2.12257H63.4469C63.4846 2.12219 63.5213 2.1345 63.5512 2.15751C63.581 2.18052 63.6023 2.21291 63.6115 2.24946L63.6321 2.31461C64.1568 4.20421 65.3468 5.42507 66.6568 5.42507H67.4456C68.759 5.42507 69.9456 4.20421 70.4703 2.31461L70.4943 2.2426C70.5046 2.20789 70.5259 2.17746 70.555 2.15583C70.584 2.1342 70.6193 2.12254 70.6555 2.12257H92.5144C94.1125 2.12438 95.6446 2.76026 96.7743 3.8906C97.904 5.02094 98.539 6.55336 98.5399 8.15144V13.6385C98.539 13.6833 98.5205 13.7261 98.4884 13.7575C98.4564 13.7889 98.4133 13.8065 98.3684 13.8065ZM35.8951 13.4636H98.1969V8.15487C98.196 6.64774 97.5972 5.20255 96.5318 4.13652C95.4664 3.0705 94.0216 2.47075 92.5144 2.46894H70.7926C70.2165 4.47513 68.9099 5.77144 67.4524 5.77144H66.6568C65.1993 5.77144 63.8927 4.47513 63.3166 2.46894H41.5914C40.8442 2.46804 40.1042 2.6143 39.4136 2.89939C38.723 3.18447 38.0953 3.60279 37.5664 4.13046C37.0374 4.65813 36.6176 5.28482 36.3308 5.97474C36.0441 6.66466 35.896 7.4043 35.8951 8.15144V13.4636Z" fill="#263238"/>
<path d="M102.354 36.3001V24.5304H101.287V9.46162C101.288 8.24177 101.048 7.03379 100.581 5.90666C100.115 4.77954 99.4308 3.75537 98.5684 2.89264C97.706 2.02992 96.6821 1.34556 95.5551 0.878636C94.4282 0.411716 93.2203 0.171392 92.0004 0.171392H42.1096C40.8887 0.17004 39.6796 0.409341 38.5512 0.875614C37.4229 1.34189 36.3975 2.02598 35.5338 2.8888C34.67 3.75161 33.9848 4.77621 33.5172 5.90403C33.0497 7.03184 32.8091 8.24074 32.8091 9.46162V129.199C32.8091 130.419 33.0494 131.627 33.5163 132.754C33.9832 133.881 34.6676 134.904 35.5303 135.767C36.3931 136.629 37.4172 137.313 38.5444 137.78C39.6715 138.246 40.8795 138.486 42.0993 138.486H92.0004C93.2201 138.486 94.4279 138.246 95.5549 137.78C96.6818 137.313 97.7057 136.629 98.5682 135.767C99.4306 134.904 100.115 133.88 100.581 132.753C101.048 131.626 101.288 130.419 101.287 129.199V46.331H102.354V39.3762H101.287V36.2898L102.354 36.3001ZM98.3722 122.563C98.3722 125.027 97.3934 127.39 95.6512 129.132C93.9089 130.874 91.5459 131.853 89.082 131.853H45.028C42.5641 131.853 40.2011 130.874 38.4588 129.132C36.7166 127.39 35.7378 125.027 35.7378 122.563V11.5844C35.7387 9.12109 36.7179 6.75896 38.46 5.01745C40.2022 3.27593 42.5647 2.29762 45.028 2.29762H63.4473L63.4679 2.36277C64.0166 4.32439 65.2649 5.59669 66.6572 5.59669H67.446C68.8383 5.59669 70.09 4.32096 70.6353 2.35935L70.6593 2.29419H89.0751C91.5385 2.29419 93.901 3.27251 95.6431 5.01402C97.3853 6.75553 98.3645 9.11766 98.3654 11.581L98.3722 122.563Z" fill="#3C3C3C"/>
<path d="M92.0005 138.657H42.1097C39.6017 138.655 37.1972 137.657 35.4234 135.884C33.6497 134.111 32.6516 131.707 32.6479 129.199V9.4617C32.6516 6.95341 33.6496 4.5489 35.4232 2.77527C37.1969 1.00165 39.6014 0.00362863 42.1097 0H92.0005C94.5085 0.00363063 96.9126 1.00176 98.6857 2.77548C100.459 4.54921 101.456 6.95373 101.459 9.4617V24.359H102.354C102.399 24.359 102.443 24.377 102.475 24.4092C102.507 24.4414 102.525 24.485 102.525 24.5304V36.3001C102.525 36.3456 102.507 36.3892 102.475 36.4214C102.443 36.4535 102.399 36.4716 102.354 36.4716H101.459V39.2151H102.354C102.399 39.2151 102.443 39.2332 102.475 39.2653C102.507 39.2975 102.525 39.3411 102.525 39.3866V46.3414C102.525 46.3869 102.507 46.4305 102.475 46.4626C102.443 46.4948 102.399 46.5129 102.354 46.5129H101.459V129.199C101.456 131.707 100.459 134.111 98.6855 135.884C96.9123 137.657 94.5082 138.655 92.0005 138.657ZM42.1097 0.342939C39.692 0.345662 37.3742 1.30726 35.6647 3.01677C33.9552 4.72628 32.9936 7.04409 32.9909 9.4617V129.199C32.9936 131.616 33.9553 133.934 35.6649 135.643C37.3745 137.352 39.6924 138.312 42.1097 138.314H92.0005C94.4172 138.312 96.7342 137.35 98.443 135.641C100.152 133.933 101.113 131.616 101.116 129.199V46.3311C101.116 46.2856 101.134 46.242 101.166 46.2099C101.198 46.1777 101.242 46.1596 101.287 46.1596H102.182V39.5478H101.287C101.242 39.5469 101.199 39.5285 101.167 39.4966C101.135 39.4646 101.117 39.4215 101.116 39.3763V36.2898C101.116 36.2444 101.134 36.2008 101.166 36.1686C101.198 36.1364 101.242 36.1184 101.287 36.1184H102.182V24.7019H101.287C101.242 24.701 101.199 24.6827 101.167 24.6507C101.135 24.6188 101.117 24.5757 101.116 24.5304V9.4617C101.114 7.0444 100.153 4.72658 98.4442 3.01698C96.7353 1.30737 94.4178 0.345664 92.0005 0.342939H42.1097ZM89.0924 132.032H45.0281C42.5162 132.032 40.1071 131.034 38.3304 129.259C36.5536 127.483 35.5545 125.075 35.5526 122.563V11.5845C35.5563 9.07652 36.5544 6.67237 38.3281 4.89928C40.1019 3.1262 42.5064 2.12895 45.0144 2.12622H63.4336C63.4715 2.12522 63.5085 2.13729 63.5385 2.1604C63.5685 2.18352 63.5896 2.21626 63.5982 2.25311L63.6188 2.31827C64.1435 4.20786 65.3335 5.42873 66.6436 5.42873H67.446C68.7595 5.42873 69.9461 4.20786 70.4708 2.31827L70.4948 2.24625C70.5051 2.21155 70.5264 2.18112 70.5554 2.15949C70.5845 2.13786 70.6197 2.12619 70.6559 2.12622H89.0752C91.5832 2.12895 93.9877 3.1262 95.7614 4.89928C97.5352 6.67237 98.5333 9.07652 98.5369 11.5845V122.563C98.5333 125.07 97.5362 127.474 95.7641 129.247C93.9919 131.021 91.5892 132.019 89.0821 132.025L89.0924 132.032ZM45.0281 2.46916C42.6084 2.46734 40.2871 3.42657 38.5745 5.13593C36.8619 6.84529 35.8983 9.16482 35.8956 11.5845V122.563C35.8983 124.981 36.8599 127.299 38.5694 129.008C40.2789 130.718 42.5967 131.679 45.0144 131.682H89.0821C91.4997 131.679 93.8175 130.718 95.527 129.008C97.2365 127.299 98.1981 124.981 98.2009 122.563V11.5845C98.1981 9.1672 97.2364 6.84974 95.5268 5.14078C93.8172 3.43181 91.4994 2.47098 89.0821 2.46916H70.7931C70.217 4.47536 68.9104 5.77167 67.4529 5.77167H66.6573C65.1998 5.77167 63.8932 4.47536 63.317 2.46916H45.0281Z" fill="#263238"/>
<path d="M91.256 1.45068H42.8536C40.4799 1.45159 38.2036 2.39421 36.5242 4.07166C34.8449 5.74911 33.8996 8.02434 33.896 10.398V128.249C33.896 130.625 34.8397 132.903 36.5196 134.583C38.1995 136.263 40.4779 137.207 42.8536 137.207H91.256C93.6317 137.207 95.9101 136.263 97.59 134.583C99.2699 132.903 100.214 130.625 100.214 128.249V10.398C100.21 8.02434 99.2647 5.74911 97.5853 4.07166C95.906 2.39421 93.6297 1.45159 91.256 1.45068ZM98.372 122.882C98.3711 125.258 97.4266 127.536 95.7462 129.216C94.0658 130.896 91.787 131.84 89.411 131.84H44.6986C42.3226 131.84 40.0438 130.896 38.3634 129.216C36.683 127.536 35.7385 125.258 35.7376 122.882V11.2519C35.7376 10.0757 35.9693 8.91109 36.4195 7.82449C36.8697 6.7379 37.5296 5.75065 38.3614 4.91914C39.1932 4.08763 40.1807 3.42814 41.2675 2.97835C42.3543 2.52857 43.519 2.29729 44.6952 2.29774H63.4471L63.4676 2.3629C64.0164 4.32451 65.2647 5.59682 66.657 5.59682H67.4457C68.8381 5.59682 70.0898 4.32109 70.6351 2.35947L70.6591 2.29431H89.4041C90.5816 2.29296 91.7478 2.52377 92.836 2.97354C93.9242 3.42331 94.9131 4.08321 95.746 4.9155C96.5789 5.74779 97.2396 6.73612 97.6902 7.82397C98.1408 8.91182 98.3725 10.0778 98.372 11.2553V122.882Z" fill="#263238"/>
<path d="M91.2561 137.378H42.8536C40.4333 137.375 38.1129 136.413 36.4015 134.701C34.69 132.99 33.7273 130.669 33.7246 128.249V10.3981C33.7273 7.97775 34.69 5.65732 36.4015 3.94588C38.1129 2.23445 40.4333 1.27177 42.8536 1.26904H91.2561C93.6764 1.27177 95.9968 2.23445 97.7083 3.94588C99.4197 5.65732 100.382 7.97775 100.385 10.3981V128.249C100.382 130.669 99.4197 132.99 97.7083 134.701C95.9968 136.413 93.6764 137.375 91.2561 137.378ZM42.8536 1.6257C40.5266 1.62841 38.2955 2.55308 36.6488 4.19724C35.002 5.8414 34.0739 8.07108 34.0675 10.3981V128.249C34.0703 130.579 34.9968 132.812 36.6439 134.459C38.2911 136.106 40.5243 137.033 42.8536 137.035H91.2561C93.5855 137.033 95.8187 136.106 97.4658 134.459C99.1129 132.812 100.039 130.579 100.042 128.249V10.3981C100.039 8.0687 99.1129 5.8355 97.4658 4.18838C95.8187 2.54125 93.5855 1.6147 91.2561 1.61198L42.8536 1.6257ZM89.4111 132.025H44.6987C43.4977 132.025 42.3085 131.789 41.1988 131.33C40.0892 130.871 39.0809 130.197 38.2315 129.348C37.3822 128.499 36.7084 127.491 36.2488 126.382C35.7891 125.272 35.5525 124.083 35.5525 122.882V11.252C35.5561 8.83226 36.5192 6.51271 38.2305 4.80202C39.9419 3.09132 42.2618 2.12911 44.6815 2.12639H63.4334C63.4713 2.12539 63.5083 2.13746 63.5383 2.16057C63.5683 2.18368 63.5894 2.21642 63.598 2.25328L63.6186 2.31844C64.1433 4.20803 65.3333 5.42889 66.6433 5.42889H67.4458C68.7593 5.42889 69.9458 4.20803 70.4705 2.31844L70.4945 2.24642C70.5049 2.21172 70.5262 2.18128 70.5552 2.15965C70.5843 2.13803 70.6195 2.12636 70.6557 2.12639H89.4042C91.826 2.1273 94.1486 3.08907 95.862 4.8006C97.5755 6.51214 98.5399 8.83359 98.5435 11.2554V122.882C98.5435 125.305 97.5817 127.629 95.8693 129.343C94.1569 131.058 91.8341 132.022 89.4111 132.025ZM44.6952 2.46933C42.3638 2.46751 40.1271 3.39169 38.4769 5.03866C36.8267 6.68564 35.8981 8.92056 35.8954 11.252V122.882C35.899 125.212 36.8264 127.445 38.474 129.092C40.1217 130.739 42.3552 131.666 44.6849 131.668H89.4111C91.7408 131.666 93.9743 130.739 95.622 129.092C97.2697 127.445 98.197 125.212 98.2006 122.882V11.2554C98.1979 8.92545 97.2708 6.69174 95.623 5.04452C93.9751 3.39729 91.741 2.47115 89.4111 2.46933H70.7929C70.2168 4.47552 68.9102 5.77183 67.4527 5.77183H66.6571C65.1996 5.77183 63.893 4.47552 63.3168 2.46933H44.6952Z" fill="#263238"/>
<path d="M67.7338 2.7402C67.7331 2.56806 67.6815 2.39999 67.5854 2.2572C67.4892 2.1144 67.353 2.00329 67.1937 1.93788C67.0345 1.87248 66.8595 1.85572 66.6907 1.88972C66.522 1.92371 66.3671 2.00694 66.2456 2.1289C66.1241 2.25086 66.0415 2.40607 66.0082 2.57495C65.9749 2.74382 65.9923 2.91879 66.0583 3.07776C66.1244 3.23672 66.236 3.37256 66.3792 3.46812C66.5223 3.56369 66.6906 3.61469 66.8628 3.61469C66.9774 3.61469 67.091 3.59205 67.1969 3.54806C67.3028 3.50407 67.399 3.4396 67.4799 3.35835C67.5608 3.2771 67.6249 3.18067 67.6685 3.07459C67.7121 2.96851 67.7343 2.85487 67.7338 2.7402Z" fill="white"/>
<path d="M41.3066 6.08353C41.3066 6.96489 40.3155 7.28382 40.3087 7.95598V7.99714H41.2723V8.29549H39.9897V8.04515C39.9897 7.09864 40.9808 6.91688 40.9808 6.09039C40.9808 5.79204 40.878 5.63085 40.6379 5.63085C40.3978 5.63085 40.295 5.80232 40.295 6.06296V6.32016H39.9897V6.08353C39.9897 5.63428 40.1921 5.33936 40.6448 5.33936C41.0974 5.33936 41.3066 5.63428 41.3066 6.08353Z" fill="#263238"/>
<path d="M42.9082 6.07666V6.15211C42.9228 6.27612 42.8973 6.40153 42.8357 6.51009C42.774 6.61865 42.6793 6.70469 42.5653 6.75568C42.6802 6.80641 42.7757 6.8929 42.8375 7.00228C42.8993 7.11165 42.9241 7.23807 42.9082 7.36269V7.58903C42.9082 8.03485 42.699 8.32635 42.2464 8.32635C41.7937 8.32635 41.5913 8.03485 41.5913 7.58903V7.38669H41.8966V7.6096C41.8966 7.87024 42.0029 8.03142 42.2395 8.03142C42.4761 8.03142 42.5824 7.8771 42.5824 7.57874V7.3524C42.5824 7.06433 42.459 6.92715 42.2121 6.9203H42.0372V6.62537H42.2292C42.2796 6.6261 42.3295 6.61572 42.3755 6.59497C42.4214 6.57421 42.4622 6.54359 42.4949 6.50528C42.5276 6.46697 42.5515 6.42192 42.5649 6.37332C42.5782 6.32473 42.5807 6.27379 42.5721 6.22413V6.09038C42.5721 5.78859 42.4658 5.63427 42.2292 5.63427C41.9926 5.63427 41.8863 5.79888 41.8863 6.06295V6.21041H41.5811V6.07666C41.5811 5.63084 41.7902 5.34277 42.2361 5.34277C42.6819 5.34277 42.9082 5.63084 42.9082 6.07666Z" fill="#263238"/>
<path d="M43.5396 6.30029V6.70496H43.2241V6.30029H43.5396ZM43.5396 7.89496V8.29963H43.2241V7.89496H43.5396Z" fill="#263238"/>
<path d="M44.2018 6.56355C44.2436 6.48643 44.3064 6.42267 44.3828 6.3796C44.4593 6.33653 44.5463 6.31589 44.6339 6.32006C45.0112 6.32006 45.1792 6.59784 45.1792 7.00594V7.57864C45.1792 8.02447 44.9666 8.31596 44.5173 8.31596C44.0681 8.31596 43.8623 8.02447 43.8623 7.57864V7.37974H44.1675V7.59922C44.1675 7.85986 44.2773 8.02104 44.5105 8.02104C44.7437 8.02104 44.8534 7.85986 44.8534 7.59922V7.04023C44.8534 6.77617 44.7437 6.61842 44.5105 6.61842C44.4671 6.61463 44.4234 6.61986 44.3821 6.6338C44.3408 6.64773 44.3029 6.67006 44.2707 6.69938C44.2385 6.72869 44.2127 6.76436 44.1949 6.80414C44.1772 6.84391 44.1678 6.88693 44.1675 6.93049V6.99908H43.8657L43.9446 5.37012H45.0969V5.66505H44.2361L44.2018 6.56355Z" fill="#263238"/>
<path d="M46.8043 6.07323V6.12811H46.4991V6.05266C46.4991 5.7886 46.3928 5.63427 46.1561 5.63427C45.9195 5.63427 45.8132 5.79545 45.8132 6.10753V6.76254C45.8483 6.66672 45.9132 6.58469 45.9984 6.52851C46.0836 6.47233 46.1845 6.44498 46.2864 6.45047C46.6637 6.45047 46.8317 6.72139 46.8317 7.13635V7.58217C46.8317 8.02799 46.6088 8.31949 46.1458 8.31949C45.6829 8.31949 45.46 8.02799 45.46 7.58217V6.09381C45.46 5.63084 45.6692 5.34277 46.1458 5.34277C46.6225 5.34277 46.8043 5.62741 46.8043 6.07323ZM45.796 7.17064V7.6096C45.796 7.87024 45.9058 8.03142 46.139 8.03142C46.3722 8.03142 46.4819 7.87024 46.4819 7.6096V7.17064C46.4819 6.90658 46.3687 6.74883 46.139 6.74883C45.9092 6.74883 45.796 6.90658 45.796 7.17064Z" fill="#263238"/>
<path d="M78.7562 6.20361H77.9297V8.26811H78.7562V6.20361Z" fill="#263238"/>
<path d="M79.8568 5.78857H79.0303V8.26803H79.8568V5.78857Z" fill="#263238"/>
<path d="M80.9578 5.49414H80.1313V8.26852H80.9578V5.49414Z" fill="#263238"/>
<path d="M82.0618 4.98291H81.2354V8.26827H82.0618V4.98291Z" fill="#263238"/>
<path d="M92.285 8.21371H87.3364V5.18213H92.2919L92.285 8.21371ZM87.6039 7.93593H92.0107V5.45648H87.6039V7.93593Z" fill="#263238"/>
<path d="M90.6322 5.75781H88.0156V7.63712H90.6322V5.75781Z" fill="#263238"/>
<path d="M92.7379 6.34082H92.1138V7.05414H92.7379V6.34082Z" fill="#263238"/>
<path d="M85.5116 7.55156C85.478 7.55225 85.4449 7.54396 85.4156 7.52755C84.4073 6.92741 83.7386 7.48297 83.7009 7.50698C83.6662 7.54132 83.6194 7.56059 83.5706 7.56059C83.5217 7.56059 83.4749 7.54132 83.4402 7.50698C83.4089 7.46972 83.3932 7.42179 83.3964 7.37321C83.3996 7.32464 83.4214 7.27918 83.4574 7.24634C83.4917 7.21548 84.3456 6.48502 85.5939 7.22577C85.6149 7.23814 85.6332 7.25453 85.6478 7.27398C85.6624 7.29344 85.673 7.31558 85.6791 7.33915C85.6851 7.36272 85.6865 7.38725 85.683 7.41134C85.6796 7.43543 85.6714 7.4586 85.6591 7.47954C85.6418 7.50227 85.6195 7.52063 85.5939 7.53314C85.5683 7.54565 85.5401 7.55196 85.5116 7.55156Z" fill="#263238"/>
<path d="M85.8825 6.93095C85.8495 6.93195 85.8171 6.92233 85.7899 6.90351C84.329 6.03588 83.3482 6.87608 83.3379 6.88294C83.3032 6.91728 83.2564 6.93655 83.2076 6.93655C83.1588 6.93655 83.112 6.91728 83.0773 6.88294C83.0457 6.84512 83.0299 6.79663 83.0331 6.74748C83.0363 6.69834 83.0583 6.6523 83.0944 6.61887C83.0944 6.61887 84.2913 5.59006 85.9785 6.61887C86.0128 6.63995 86.0393 6.67163 86.054 6.7091C86.0687 6.74657 86.0707 6.78781 86.0599 6.82656C86.049 6.86532 86.0259 6.89948 85.9938 6.92388C85.9618 6.94829 85.9228 6.9616 85.8825 6.96181V6.93095Z" fill="#263238"/>
<path d="M86.2219 6.21065C86.1891 6.21002 86.1571 6.20054 86.1293 6.18321C84.2808 5.08581 83.0428 6.11806 83.0017 6.16264C82.9844 6.18016 82.9639 6.19408 82.9412 6.20358C82.9185 6.21308 82.8942 6.21797 82.8696 6.21797C82.8451 6.21797 82.8207 6.21308 82.7981 6.20358C82.7754 6.19408 82.7548 6.18016 82.7376 6.16264C82.7063 6.12538 82.6906 6.07745 82.6938 6.02887C82.697 5.9803 82.7188 5.93484 82.7548 5.902C82.7719 5.902 84.2294 4.63999 86.3179 5.88143C86.3595 5.90704 86.3896 5.94782 86.4017 5.99515C86.4139 6.04249 86.4072 6.0927 86.3831 6.1352C86.3643 6.15985 86.3398 6.17959 86.3117 6.19272C86.2837 6.20586 86.2528 6.21201 86.2219 6.21065Z" fill="#263238"/>
<path d="M84.9528 7.86387C84.9528 7.95626 84.9254 8.04657 84.874 8.12334C84.8226 8.20011 84.7495 8.25989 84.6641 8.29508C84.5787 8.33028 84.4847 8.33932 84.3942 8.32104C84.3036 8.30276 84.2205 8.258 84.1554 8.19243C84.0903 8.12686 84.0462 8.04344 84.0286 7.95274C84.011 7.86204 84.0207 7.76816 84.0565 7.683C84.0923 7.59784 84.1527 7.52524 84.2298 7.4744C84.3069 7.42357 84.3975 7.39679 84.4899 7.39747C84.5509 7.39747 84.6114 7.40956 84.6678 7.43304C84.7242 7.45652 84.7754 7.49093 84.8184 7.53428C84.8615 7.57764 84.8955 7.62908 84.9186 7.68565C84.9416 7.74221 84.9533 7.80279 84.9528 7.86387Z" fill="#263238"/>
<path d="M87.0858 124.048L88.7559 122.378C88.8468 122.28 88.8962 122.151 88.8939 122.018C88.8915 121.885 88.8375 121.758 88.7433 121.663C88.649 121.569 88.5219 121.515 88.3886 121.513C88.2553 121.51 88.1264 121.56 88.0289 121.651L86.3587 123.321L84.6886 121.651C84.5922 121.554 84.4613 121.499 84.3246 121.499C84.1879 121.499 84.0567 121.553 83.9599 121.649C83.863 121.746 83.8084 121.876 83.8081 122.013C83.8078 122.15 83.8617 122.281 83.9582 122.378L85.6214 124.048L83.9479 125.718C83.8524 125.815 83.7988 125.946 83.7988 126.082C83.7988 126.218 83.8524 126.348 83.9479 126.445C84.0449 126.542 84.1762 126.596 84.3131 126.596C84.45 126.596 84.5813 126.542 84.6783 126.445L86.3484 124.775L88.0186 126.445C88.0659 126.493 88.1225 126.532 88.185 126.557C88.2474 126.583 88.3145 126.597 88.3821 126.596C88.4497 126.597 88.5169 126.584 88.5794 126.558C88.6419 126.532 88.6985 126.494 88.7456 126.445C88.7937 126.398 88.8319 126.341 88.858 126.279C88.884 126.216 88.8975 126.149 88.8975 126.082C88.8975 126.014 88.884 125.947 88.858 125.885C88.8319 125.822 88.7937 125.766 88.7456 125.718L87.0858 124.048Z" fill="#263238"/>
<path d="M46.1081 103.773V100.395L45.9881 100.443L45.7892 100.502L45.5903 100.556C45.5479 100.566 45.5066 100.58 45.4668 100.598V100.066L45.6451 99.994L45.8749 99.8877C45.9533 99.8496 46.029 99.8061 46.1012 99.7573C46.1643 99.7142 46.2219 99.6635 46.2727 99.6064H46.818V103.773H46.1081Z" fill="#263238"/>
<path d="M65.3198 103.773V103.272L66.3486 101.681C66.4241 101.564 66.4961 101.455 66.5613 101.338C66.63 101.231 66.6853 101.116 66.7259 100.995C66.7708 100.873 66.7929 100.744 66.791 100.614C66.7962 100.495 66.7677 100.376 66.7087 100.271C66.6803 100.23 66.6416 100.197 66.5965 100.176C66.5514 100.154 66.5014 100.145 66.4515 100.148C66.4046 100.145 66.3575 100.152 66.3133 100.168C66.269 100.184 66.2286 100.208 66.1943 100.241C66.1303 100.307 66.0863 100.39 66.0674 100.481C66.0438 100.593 66.0323 100.708 66.0331 100.824V101.002H65.3473V100.817C65.3423 100.594 65.3808 100.373 65.4604 100.165C65.5258 99.9855 65.6457 99.8308 65.8034 99.7228C65.9892 99.6133 66.2016 99.5575 66.4172 99.5616C66.5638 99.5495 66.7113 99.5689 66.8497 99.6186C66.9881 99.6683 67.1143 99.7471 67.2197 99.8497C67.4089 100.073 67.5048 100.36 67.4872 100.652C67.4892 100.811 67.4649 100.968 67.4152 101.119C67.3659 101.258 67.3015 101.391 67.2231 101.516C67.1454 101.644 67.0597 101.775 66.9659 101.907L66.112 103.204H67.3775V103.773H65.3198Z" fill="#263238"/>
<path d="M85.3884 103.835C85.1689 103.844 84.9509 103.795 84.7573 103.691C84.6005 103.592 84.4801 103.446 84.4144 103.272C84.3391 103.072 84.303 102.859 84.3081 102.645V102.501H84.994V102.621C84.9952 102.736 85.0079 102.851 85.0317 102.964C85.0465 103.045 85.0861 103.119 85.1449 103.176C85.2128 103.228 85.2966 103.253 85.3815 103.248C85.4242 103.252 85.4671 103.246 85.5077 103.233C85.5484 103.219 85.5859 103.198 85.6181 103.17C85.6772 103.107 85.7156 103.028 85.7279 102.943C85.7463 102.83 85.7554 102.715 85.7553 102.6C85.7626 102.428 85.7285 102.256 85.6558 102.1C85.6148 102.035 85.5571 101.983 85.4889 101.949C85.4207 101.914 85.3445 101.899 85.2683 101.904H85.1483V101.311H85.2786C85.351 101.317 85.4239 101.307 85.4917 101.281C85.5595 101.255 85.6204 101.213 85.6696 101.16C85.7519 101.017 85.789 100.852 85.7759 100.687C85.7817 100.545 85.7547 100.404 85.697 100.275C85.6654 100.224 85.6199 100.183 85.5659 100.157C85.5118 100.131 85.4514 100.121 85.3918 100.128C85.3312 100.121 85.2701 100.134 85.2168 100.163C85.1635 100.193 85.1204 100.238 85.0934 100.292C85.0397 100.428 85.0129 100.572 85.0145 100.718V100.872H84.3287V100.673C84.3225 100.465 84.3648 100.258 84.4521 100.069C84.5326 99.9068 84.6621 99.7736 84.8225 99.6887C85.0037 99.5961 85.2056 99.5513 85.4089 99.5584C85.6152 99.5511 85.8201 99.5947 86.0056 99.6853C86.164 99.7686 86.2923 99.8993 86.3726 100.059C86.4615 100.245 86.505 100.45 86.4995 100.656C86.5 100.877 86.433 101.094 86.3074 101.277C86.2187 101.426 86.0766 101.536 85.9096 101.585C86.019 101.62 86.1181 101.681 86.1977 101.764C86.2873 101.861 86.353 101.979 86.3897 102.106C86.4414 102.266 86.4658 102.433 86.4618 102.6C86.4647 102.824 86.4287 103.047 86.3554 103.259C86.2924 103.441 86.1721 103.597 86.0125 103.705C85.8214 103.807 85.6046 103.853 85.3884 103.835Z" fill="#263238"/>
<path d="M46.4543 111.16V110.132H45.2095V109.525L46.2932 106.987H47.1231V109.566H47.5552V110.132H47.1299V111.16H46.4543ZM45.8062 109.573H46.4543V107.762L45.8062 109.573Z" fill="#263238"/>
<path d="M66.4172 111.222C66.1917 111.236 65.9674 111.182 65.7724 111.068C65.6187 110.965 65.5067 110.81 65.4569 110.632C65.3926 110.416 65.3625 110.192 65.3678 109.967H66.0536C66.0514 110.092 66.0606 110.217 66.0811 110.341C66.0917 110.434 66.1313 110.522 66.1943 110.591C66.2262 110.623 66.265 110.648 66.3078 110.662C66.3506 110.677 66.3962 110.682 66.4412 110.677C66.4905 110.682 66.5403 110.674 66.5855 110.653C66.6306 110.633 66.6696 110.601 66.6984 110.56C66.7531 110.461 66.7848 110.351 66.791 110.238C66.791 110.097 66.8115 109.936 66.8115 109.751C66.814 109.61 66.8049 109.469 66.7841 109.329C66.7735 109.227 66.7356 109.13 66.6744 109.048C66.6417 109.013 66.6016 108.986 66.5571 108.969C66.5126 108.952 66.4647 108.945 66.4172 108.948C66.3715 108.948 66.3261 108.956 66.2837 108.973C66.2413 108.99 66.2027 109.016 66.1702 109.048C66.1011 109.124 66.0516 109.216 66.0262 109.315H65.4124L65.4535 106.994H67.3259V107.632H66.0536L66.0125 108.636C66.0716 108.567 66.1487 108.514 66.2354 108.485C66.3453 108.445 66.4612 108.423 66.5783 108.42C66.7673 108.401 66.9568 108.45 67.1133 108.557C67.2579 108.672 67.3633 108.829 67.4151 109.007C67.484 109.229 67.5175 109.46 67.5146 109.693C67.5164 109.896 67.5014 110.099 67.47 110.3C67.4472 110.468 67.3925 110.631 67.3088 110.78C67.2274 110.916 67.1083 111.025 66.9659 111.095C66.796 111.182 66.6077 111.225 66.4172 111.222Z" fill="#263238"/>
<path d="M85.4125 111.222C85.1891 111.232 84.9688 111.168 84.7849 111.041C84.6246 110.915 84.5052 110.744 84.442 110.55C84.3679 110.329 84.3309 110.097 84.3322 109.864V108.403C84.3291 108.156 84.3603 107.909 84.4248 107.669C84.4803 107.464 84.6006 107.283 84.7678 107.152C84.9602 107.015 85.1939 106.948 85.4297 106.963C85.6354 106.954 85.8402 106.995 86.0264 107.083C86.1756 107.156 86.2963 107.277 86.3693 107.426C86.4458 107.606 86.4821 107.8 86.4756 107.995C86.4756 107.995 86.4756 108.016 86.4756 108.03C86.4773 108.041 86.4773 108.052 86.4756 108.064H85.7897C85.7973 107.921 85.7751 107.779 85.7246 107.645C85.6958 107.596 85.6529 107.557 85.6016 107.533C85.5502 107.508 85.4927 107.5 85.4365 107.508C85.3968 107.507 85.3571 107.513 85.32 107.527C85.2828 107.541 85.249 107.563 85.2205 107.591C85.1552 107.666 85.1135 107.759 85.1004 107.858C85.0695 108.024 85.0557 108.193 85.0593 108.362V108.859C85.1132 108.777 85.1893 108.712 85.2788 108.671C85.4212 108.614 85.575 108.592 85.7276 108.607C85.8802 108.621 86.0272 108.671 86.1567 108.753C86.2915 108.863 86.3897 109.011 86.4379 109.178C86.4956 109.381 86.5233 109.592 86.5202 109.803C86.5234 110.049 86.4887 110.294 86.4173 110.53C86.3572 110.73 86.2376 110.907 86.0744 111.037C85.8815 111.173 85.6478 111.238 85.4125 111.222ZM85.4125 110.67C85.4548 110.673 85.4972 110.666 85.5364 110.65C85.5756 110.634 85.6107 110.609 85.6388 110.578C85.6968 110.503 85.7345 110.414 85.7486 110.32C85.7706 110.194 85.781 110.065 85.7795 109.936C85.7795 109.785 85.7795 109.648 85.7623 109.532C85.7552 109.43 85.7222 109.332 85.6663 109.247C85.6347 109.211 85.5949 109.182 85.5502 109.164C85.5054 109.146 85.4571 109.139 85.4091 109.144C85.3538 109.143 85.299 109.154 85.2479 109.175C85.2003 109.197 85.1563 109.226 85.1176 109.261C85.0851 109.292 85.0563 109.326 85.0318 109.364V110.019C85.0322 110.127 85.0436 110.235 85.0661 110.341C85.084 110.43 85.1255 110.513 85.1862 110.581C85.2162 110.611 85.2522 110.634 85.2918 110.649C85.3314 110.663 85.3737 110.67 85.4159 110.667L85.4125 110.67Z" fill="#263238"/>
<path d="M45.6831 118.547L46.5267 114.926H45.3984V114.38H47.2126V114.816L46.3724 118.547H45.6831Z" fill="#263238"/>
<path d="M66.3858 118.603C66.1623 118.614 65.9405 118.559 65.7479 118.445C65.5871 118.339 65.4664 118.182 65.405 117.999C65.3327 117.786 65.2979 117.562 65.3021 117.337C65.3002 117.222 65.3106 117.107 65.333 116.994C65.3536 116.898 65.387 116.804 65.4324 116.716C65.473 116.636 65.5263 116.563 65.5902 116.5C65.6505 116.436 65.7213 116.383 65.7994 116.343C65.6711 116.253 65.5644 116.136 65.4873 116C65.3978 115.823 65.353 115.628 65.357 115.43C65.3526 115.229 65.39 115.03 65.4667 114.844C65.5357 114.683 65.6563 114.549 65.8097 114.463C65.9865 114.369 66.1853 114.322 66.3858 114.329C66.5864 114.322 66.7854 114.368 66.9619 114.463C67.1145 114.55 67.2348 114.683 67.3049 114.844C67.3836 115.029 67.4199 115.229 67.4112 115.43C67.4165 115.629 67.3729 115.825 67.2843 116.003C67.2111 116.14 67.1065 116.257 66.9791 116.346C67.0582 116.386 67.1301 116.44 67.1917 116.504C67.2545 116.567 67.3066 116.64 67.346 116.72C67.3914 116.808 67.4249 116.901 67.4455 116.998C67.4691 117.11 67.4806 117.225 67.4798 117.34C67.4874 117.566 67.4525 117.79 67.3769 118.002C67.3143 118.184 67.1939 118.341 67.034 118.448C66.838 118.563 66.6124 118.616 66.3858 118.603ZM66.3858 118.064C66.4332 118.068 66.4808 118.061 66.5249 118.043C66.5689 118.025 66.6082 117.997 66.6396 117.961C66.7009 117.887 66.7401 117.796 66.7527 117.701C66.7695 117.594 66.7775 117.486 66.7767 117.378C66.7815 117.263 66.7734 117.148 66.7527 117.035C66.7358 116.939 66.6958 116.849 66.6361 116.771C66.605 116.736 66.5662 116.709 66.5228 116.691C66.4795 116.673 66.4326 116.665 66.3858 116.668C66.34 116.665 66.2942 116.673 66.2519 116.691C66.2096 116.709 66.1721 116.736 66.1423 116.771C66.0816 116.847 66.0404 116.936 66.0223 117.032C66.001 117.145 65.9906 117.26 65.9914 117.375C65.9902 117.484 65.9993 117.593 66.0188 117.701C66.0327 117.797 66.0731 117.887 66.1354 117.961C66.1654 117.999 66.2035 118.029 66.2469 118.05C66.2902 118.071 66.3377 118.081 66.3858 118.081V118.064ZM66.3858 116.072C66.424 116.073 66.4619 116.065 66.4969 116.05C66.5318 116.034 66.563 116.011 66.5881 115.982C66.6442 115.916 66.681 115.835 66.6944 115.749C66.7164 115.636 66.7268 115.521 66.7253 115.406C66.731 115.273 66.7052 115.14 66.6499 115.019C66.6251 114.971 66.5869 114.932 66.54 114.905C66.493 114.879 66.4394 114.867 66.3858 114.871C66.3322 114.868 66.2788 114.88 66.2319 114.906C66.1851 114.932 66.1468 114.971 66.1217 115.019C66.0598 115.136 66.0302 115.267 66.036 115.399C66.0341 115.515 66.0456 115.63 66.0703 115.742C66.0842 115.83 66.1222 115.912 66.18 115.979C66.2058 116.008 66.2375 116.031 66.273 116.047C66.3084 116.063 66.3469 116.072 66.3858 116.072Z" fill="#263238"/>
<path d="M66.3859 125.842C66.1743 125.851 65.9645 125.799 65.7823 125.691C65.6223 125.587 65.4969 125.438 65.4223 125.262C65.3378 125.064 65.2969 124.85 65.3022 124.635V122.786C65.2973 122.568 65.337 122.351 65.4188 122.148C65.4852 121.973 65.6052 121.823 65.7618 121.72C65.9506 121.618 66.1614 121.565 66.3756 121.565C66.5898 121.565 66.8007 121.618 66.9895 121.72C67.145 121.824 67.2646 121.974 67.3324 122.148C67.4127 122.351 67.4523 122.568 67.449 122.786V124.635C67.4533 124.85 67.4112 125.064 67.3256 125.262C67.251 125.438 67.1256 125.587 66.9655 125.691C66.7902 125.794 66.5894 125.847 66.3859 125.842ZM66.3859 125.231C66.4301 125.234 66.4743 125.227 66.5153 125.211C66.5563 125.194 66.593 125.168 66.6225 125.135C66.6758 125.065 66.7111 124.982 66.7254 124.895C66.743 124.806 66.7522 124.715 66.7529 124.624V122.796C66.7515 122.701 66.7435 122.606 66.7289 122.512C66.7157 122.425 66.6815 122.342 66.6294 122.272C66.5991 122.238 66.5613 122.211 66.519 122.195C66.4768 122.178 66.4312 122.172 66.3859 122.176C66.3412 122.172 66.2961 122.178 66.2543 122.195C66.2126 122.212 66.1754 122.238 66.1459 122.272C66.0926 122.342 66.0573 122.425 66.043 122.512C66.0294 122.606 66.0225 122.701 66.0224 122.796V124.624C66.0213 124.715 66.0305 124.806 66.0498 124.895C66.0653 124.983 66.1018 125.065 66.1561 125.135C66.1845 125.168 66.22 125.193 66.2598 125.21C66.2997 125.227 66.3428 125.234 66.3859 125.231Z" fill="#263238"/>
<path d="M85.3405 118.602C85.1357 118.61 84.932 118.567 84.7472 118.478C84.5954 118.401 84.4744 118.274 84.4043 118.118C84.3278 117.936 84.2915 117.74 84.298 117.542V117.487H84.9839C84.9767 117.629 85.0001 117.771 85.0525 117.902C85.0826 117.952 85.1266 117.992 85.179 118.017C85.2313 118.042 85.2899 118.051 85.3474 118.043C85.3872 118.045 85.427 118.039 85.4643 118.025C85.5015 118.011 85.5353 117.989 85.5634 117.961C85.6253 117.881 85.6645 117.786 85.6766 117.686C85.7043 117.522 85.7169 117.356 85.7143 117.189V116.688C85.6627 116.77 85.5874 116.835 85.4983 116.874C85.39 116.92 85.2733 116.945 85.1553 116.946C84.9655 116.958 84.7772 116.904 84.6238 116.791C84.4882 116.675 84.3902 116.521 84.3426 116.349C84.2822 116.145 84.2533 115.934 84.2568 115.721C84.2517 115.477 84.2876 115.233 84.3631 115.001C84.4244 114.806 84.5441 114.635 84.7061 114.511C84.8932 114.385 85.1155 114.323 85.3405 114.332C85.5631 114.321 85.7834 114.383 85.9681 114.507C86.1282 114.626 86.2479 114.791 86.311 114.981C86.3862 115.201 86.4233 115.433 86.4208 115.666V117.141C86.4243 117.39 86.392 117.638 86.3248 117.878C86.2693 118.084 86.1491 118.267 85.9818 118.4C85.7976 118.539 85.5712 118.61 85.3405 118.602ZM85.3405 116.407C85.4233 116.412 85.5049 116.386 85.5703 116.335C85.6241 116.292 85.6705 116.239 85.7075 116.181V115.533C85.7086 115.423 85.6982 115.314 85.6766 115.207C85.6613 115.12 85.6234 115.038 85.5669 114.97C85.5377 114.939 85.502 114.914 85.4623 114.898C85.4226 114.882 85.3798 114.875 85.3371 114.878C85.2953 114.875 85.2535 114.882 85.2149 114.898C85.1763 114.914 85.1418 114.939 85.1142 114.97C85.0538 115.044 85.0147 115.133 85.001 115.227C84.979 115.355 84.9686 115.485 84.9702 115.615C84.9694 115.749 84.9763 115.883 84.9907 116.016C84.9946 116.118 85.0267 116.216 85.0833 116.301C85.1145 116.339 85.1546 116.369 85.2001 116.387C85.2457 116.406 85.2951 116.413 85.344 116.407H85.3405Z" fill="#263238"/>
<path d="M61.688 84.6237V80.457H63.437V80.992H62.4493V82.1889H63.2278V82.7204H62.4493V84.0922H63.4473V84.6169L61.688 84.6237Z" fill="white"/>
<path d="M63.8896 84.6237V80.457H64.4212L65.4329 82.8336V80.457H66.0742V84.6237H65.57L64.5412 82.134V84.6237H63.8896Z" fill="white"/>
<path d="M67.1028 84.6237V81.016H66.4409V80.457H68.5191V81.016H67.8641V84.6237H67.1028Z" fill="white"/>
<path d="M68.9067 84.6237V80.457H70.6557V80.992H69.6681V82.1889H70.4431V82.7204H69.6681V84.0922H70.666V84.6169L68.9067 84.6237Z" fill="white"/>
<path d="M71.1084 84.6241V80.4574H72.1064C72.348 80.4506 72.5891 80.4842 72.8197 80.5568C73.0027 80.616 73.1592 80.7373 73.2621 80.8998C73.3719 81.1012 73.4241 81.3291 73.413 81.5582C73.4141 81.7105 73.398 81.8623 73.3649 82.0109C73.3394 82.1352 73.2867 82.2523 73.2106 82.3539C73.1294 82.4535 73.0228 82.5293 72.902 82.5733L73.485 84.631H72.7236L72.2195 82.7208H71.8766V84.631L71.1084 84.6241ZM71.8697 82.2235H72.1064C72.224 82.226 72.3408 82.2038 72.4493 82.1584C72.5341 82.1147 72.5999 82.0415 72.6345 81.9526C72.6764 81.8361 72.6961 81.7128 72.6928 81.5891C72.7053 81.424 72.6644 81.2593 72.5762 81.1193C72.521 81.0598 72.4523 81.0144 72.3759 80.987C72.2995 80.9595 72.2177 80.9508 72.1372 80.9615H71.8594L71.8697 82.2235Z" fill="white"/>
<path d="M51.4101 24.5545L50.6831 20.9434H51.2661L51.7428 23.4983L52.1886 20.9434H52.7853L52.0583 24.5545H51.4101Z" fill="#263238"/>
<path d="M53.1558 24.5545V20.9434H54.6716V21.4063H53.8176V22.4351H54.5035V22.8947H53.8176V24.1155H54.6818V24.5682L53.1558 24.5545Z" fill="#263238"/>
<path d="M55.062 24.555V20.9438H55.9296C56.1389 20.9392 56.3475 20.9693 56.5469 21.033C56.7056 21.0832 56.8415 21.1876 56.931 21.3279C57.0257 21.5022 57.0708 21.6991 57.0613 21.8972C57.0629 22.0298 57.0491 22.1621 57.0202 22.2916C56.9975 22.3984 56.9519 22.499 56.8865 22.5865C56.816 22.6732 56.7236 22.7395 56.619 22.7785L57.1231 24.555H56.4715L56.0325 22.902H55.7307V24.555H55.062ZM55.7239 22.4973H55.9296C56.0342 22.5026 56.1386 22.4838 56.2349 22.4425C56.3098 22.4063 56.3676 22.3423 56.396 22.2641C56.4321 22.163 56.4484 22.0559 56.4441 21.9486C56.4544 21.8055 56.4196 21.6628 56.3446 21.5405C56.2961 21.4899 56.2364 21.4514 56.1703 21.4281C56.1041 21.4049 56.0334 21.3976 55.9639 21.4068H55.7239V22.4973Z" fill="#263238"/>
<path d="M57.5723 24.5545V20.9434H58.2238V24.5545H57.5723Z" fill="#263238"/>
<path d="M58.7827 24.5545V20.9434H60.2676V21.3995H59.4412V22.4523H60.127V22.9118H59.4412V24.5545H58.7827Z" fill="#263238"/>
<path d="M60.6284 24.5545V20.9434H61.2731V24.5545H60.6284Z" fill="#263238"/>
<path d="M62.8092 24.606C62.59 24.6174 62.3725 24.5625 62.185 24.4483C62.0359 24.3459 61.9259 24.196 61.873 24.023C61.8093 23.8224 61.7791 23.6127 61.7838 23.4023V22.1128C61.7785 21.8957 61.8086 21.679 61.873 21.4715C61.9233 21.2991 62.0341 21.1506 62.185 21.0532C62.3743 20.9443 62.5912 20.893 62.8092 20.9057C63.0125 20.8951 63.2149 20.9389 63.3956 21.0326C63.5348 21.1148 63.6405 21.2436 63.694 21.3961C63.7574 21.5707 63.7876 21.7556 63.7831 21.9414V22.2466H63.1521V21.9345C63.1578 21.842 63.1578 21.7492 63.1521 21.6567C63.1458 21.5829 63.1157 21.5131 63.0664 21.4578C63.0338 21.4305 62.9961 21.41 62.9554 21.3977C62.9148 21.3853 62.872 21.3813 62.8298 21.3858C62.7403 21.3788 62.6517 21.4071 62.5829 21.4647C62.5281 21.5223 62.4922 21.5953 62.48 21.6739C62.4654 21.7715 62.4586 21.8701 62.4594 21.9688V23.5395C62.4572 23.6478 62.4676 23.7559 62.4903 23.8618C62.5055 23.9367 62.5454 24.0043 62.6034 24.0539C62.6688 24.1016 62.749 24.1247 62.8298 24.119C62.872 24.1232 62.9147 24.1184 62.9549 24.1048C62.9951 24.0912 63.0319 24.0691 63.063 24.0402C63.1137 23.983 63.1438 23.9106 63.1487 23.8344C63.1631 23.7379 63.17 23.6405 63.1693 23.5429V23.2H63.8003V23.4915C63.8031 23.6844 63.7753 23.8765 63.718 24.0607C63.6636 24.2191 63.5588 24.3552 63.4196 24.4483C63.2364 24.5606 63.0238 24.6155 62.8092 24.606Z" fill="#263238"/>
<path d="M64.061 24.5545L64.7812 20.9434H65.4877L66.2078 24.5545H65.5974L65.4568 23.7212H64.8258L64.6818 24.5545H64.061ZM64.8944 23.3028H65.3882L65.1413 21.787L64.8944 23.3028Z" fill="#263238"/>
<path d="M66.7597 24.5545V21.4303H66.1836V20.9434H67.984V21.4303H67.4182V24.5545H66.7597Z" fill="#263238"/>
<path d="M68.334 24.5545V20.9434H68.9856V24.5545H68.334Z" fill="#263238"/>
<path d="M70.5318 24.6059C70.3188 24.6167 70.1071 24.5667 69.9214 24.4618C69.7695 24.3652 69.6547 24.2202 69.5956 24.0503C69.5292 23.8503 69.4979 23.6403 69.503 23.4296V22.0578C69.4986 21.8444 69.5323 21.6319 69.6024 21.4302C69.6586 21.2653 69.7685 21.1241 69.9145 21.029C70.1016 20.9282 70.3127 20.8807 70.5249 20.8918C70.7394 20.8803 70.9528 20.9278 71.1422 21.029C71.2919 21.1219 71.4064 21.2618 71.468 21.4268C71.5363 21.6299 71.5676 21.8436 71.5606 22.0578V23.4296C71.5644 23.643 71.5308 23.8554 71.4612 24.0572C71.3997 24.2249 71.2854 24.3682 71.1354 24.4652C70.951 24.5669 70.7421 24.6155 70.5318 24.6059ZM70.5318 24.1189C70.6192 24.1269 70.7063 24.1011 70.7753 24.0469C70.8302 23.9948 70.8664 23.9261 70.8782 23.8514C70.8965 23.7622 70.9057 23.6715 70.9056 23.5805V21.9172C70.906 21.8251 70.8968 21.7331 70.8782 21.6429C70.865 21.5706 70.8289 21.5045 70.7753 21.4542C70.7067 21.3983 70.6202 21.3691 70.5318 21.3719C70.4473 21.3663 70.3635 21.3905 70.2952 21.4405C70.2403 21.4903 70.203 21.5564 70.1889 21.6291C70.1685 21.7191 70.1593 21.8113 70.1614 21.9035V23.5667C70.1603 23.6576 70.1683 23.7484 70.1854 23.8377C70.1982 23.9128 70.2356 23.9816 70.2917 24.0331C70.3583 24.0903 70.4442 24.1197 70.5318 24.1155V24.1189Z" fill="#263238"/>
<path d="M72.0552 24.5545V20.9434H72.5147L73.3926 23.001V20.9434H73.9345V24.5545H73.4989L72.6176 22.4009V24.5579L72.0552 24.5545Z" fill="#263238"/>
<path d="M76.5375 24.6064C76.3194 24.6174 76.1032 24.5624 75.9168 24.4487C75.7676 24.3463 75.6576 24.1964 75.6047 24.0234C75.5398 23.8231 75.5085 23.6133 75.5121 23.4027V22.1133C75.5078 21.8959 75.5391 21.6792 75.6047 21.472C75.6551 21.2995 75.7659 21.151 75.9168 21.0536C76.1049 20.945 76.3206 20.8937 76.5375 20.9061C76.7408 20.8947 76.9435 20.9385 77.1239 21.033C77.2644 21.1146 77.3713 21.2434 77.4257 21.3965C77.4891 21.5711 77.5194 21.7561 77.5149 21.9418V22.247H76.8839V21.9349C76.8838 21.8421 76.8781 21.7493 76.8667 21.6571C76.8604 21.5833 76.8303 21.5135 76.781 21.4582C76.7484 21.4309 76.7107 21.4105 76.67 21.3981C76.6294 21.3857 76.5866 21.3817 76.5444 21.3862C76.4549 21.3792 76.3663 21.4075 76.2974 21.4651C76.2413 21.5218 76.2052 21.5952 76.1946 21.6743C76.18 21.7719 76.1731 21.8705 76.174 21.9692V23.5399C76.1718 23.6482 76.1822 23.7563 76.2048 23.8622C76.2201 23.9371 76.26 24.0047 76.318 24.0543C76.3834 24.1021 76.4636 24.1251 76.5444 24.1195C76.5866 24.1237 76.6293 24.1188 76.6695 24.1052C76.7097 24.0916 76.7465 24.0696 76.7776 24.0406C76.8262 23.9822 76.8561 23.9105 76.8633 23.8348C76.8777 23.7383 76.8846 23.6409 76.8839 23.5433V23.2004H77.5149V23.4919C77.5186 23.6851 77.4896 23.8776 77.4291 24.0612C77.3773 24.2199 77.2734 24.3564 77.1342 24.4487C76.9549 24.5582 76.7475 24.613 76.5375 24.6064Z" fill="#263238"/>
<path d="M78.9552 24.6064C78.7422 24.6169 78.5306 24.567 78.3447 24.4624C78.1929 24.3658 78.0781 24.2208 78.019 24.0509C77.9503 23.8478 77.9178 23.6342 77.9229 23.4199V22.0584C77.9176 21.8452 77.9501 21.6327 78.019 21.4308C78.0794 21.2651 78.1942 21.1249 78.3447 21.033C78.5368 20.9428 78.7464 20.896 78.9586 20.896C79.1708 20.896 79.3804 20.9428 79.5725 21.033C79.723 21.1249 79.8379 21.2651 79.8983 21.4308C79.9702 21.632 80.004 21.8448 79.9977 22.0584V23.4301C80.0032 23.6437 79.9695 23.8564 79.8983 24.0577C79.8382 24.2263 79.7235 24.3699 79.5725 24.4658C79.3841 24.5699 79.1701 24.6187 78.9552 24.6064ZM78.9552 24.1195C79.0426 24.1275 79.1297 24.1017 79.1987 24.0474C79.2525 23.9941 79.2894 23.9261 79.305 23.852C79.3221 23.7627 79.3301 23.6719 79.329 23.581V21.9178C79.3304 21.8257 79.3224 21.7338 79.305 21.6434C79.2885 21.5716 79.2516 21.5061 79.1987 21.4548C79.1267 21.4098 79.0435 21.3859 78.9586 21.3859C78.8737 21.3859 78.7905 21.4098 78.7185 21.4548C78.6637 21.5046 78.6264 21.5707 78.6122 21.6434C78.5936 21.7337 78.5844 21.8256 78.5848 21.9178V23.581C78.5854 23.6719 78.5934 23.7625 78.6088 23.852C78.6215 23.9271 78.6589 23.9959 78.7151 24.0474C78.7837 24.0996 78.8694 24.1241 78.9552 24.116V24.1195Z" fill="#263238"/>
<path d="M80.4771 24.555V20.9439H81.3275C81.5622 20.9339 81.7962 20.9748 82.0134 21.0639C82.1683 21.1424 82.29 21.2738 82.3564 21.4343C82.4312 21.6372 82.4661 21.8526 82.4592 22.0687V23.389C82.4656 23.6107 82.4307 23.8317 82.3564 24.0406C82.294 24.2078 82.1718 24.3459 82.0134 24.4281C81.8049 24.5228 81.5768 24.5663 81.3481 24.555H80.4771ZM81.1355 24.0955H81.3378C81.4522 24.1066 81.567 24.0788 81.6636 24.0166C81.733 23.9578 81.7761 23.874 81.7836 23.7834C81.7986 23.6582 81.8055 23.5322 81.8042 23.4062V22.0344C81.8061 21.9193 81.7958 21.8044 81.7734 21.6915C81.7666 21.652 81.7519 21.6143 81.73 21.5807C81.7082 21.5471 81.6798 21.5182 81.6465 21.496C81.5474 21.4479 81.4374 21.4267 81.3275 21.4343H81.1355V24.0955Z" fill="#263238"/>
<path d="M82.9678 24.5545V20.9434H84.4836V21.4063H83.6262V22.4351H84.3121V22.8947H83.6262V24.1155H84.4938V24.5682L82.9678 24.5545Z" fill="#263238"/>
</svg>
